<?xml version="1.0" encoding="utf-8"?>
<!DOCTYPE svg PUBLIC "-//W3C//DTD SVG 1.1//EN" "http://www.w3.org/Graphics/SVG/1.1/DTD/svg11.dtd">
<svg version="1.1" id="Layer_1" xmlns="http://www.w3.org/2000/svg" xmlns:xlink="http://www.w3.org/1999/xlink" x="0px" y="0px" width="156px" height="36px" viewBox="0 0 156 36" enable-background="new 0 0 156 36" xml:space="preserve">
<g>
	<g>
		<path d="M44.4,41.4v-5h-15v5H44.4z M26.3,27.8H45v-5.5H20.4V57h25.2v-5.5H26.3V27.8z M69.5,27.2c2,0,3.7,0.3,5.2,0.9
			c1.5,0.6,3.1,1.7,4.7,3.3l3.8-4.1c-3.6-4-8.2-6-13.6-6c-5.4,0-9.9,1.7-13.5,5.2s-5.3,7.8-5.3,12.9c0,5.2,1.7,9.4,5.2,12.8
			c3.5,3.4,7.9,5.1,13.2,5.1c5.3,0,9.8-2,13.5-6.1l-3.8-3.9c-1.6,1.5-3.1,2.6-4.6,3.3c-1.5,0.7-3.2,1-5.3,1c-3.3,0-6.1-1.2-8.5-3.6
			c-2.4-2.4-3.6-5.3-3.6-8.9c0-3.5,1.2-6.4,3.6-8.7C63,28.3,66,27.2,69.5,27.2z M95.8,22.3h-5.9V57h21.9v-5.6h-16V22.3z M128.8,22.3
			L113.4,57h6.3l3.5-7.9h17.5l3.5,7.9h6.3l-15.4-34.8H128.8z M125.6,43.7l6.4-14.3l6.4,14.3H125.6z M149.3,22.3v5.4h10.6V57h5.9
			V27.6h10.6v-5.4H149.3z"/>
	</g>
</g>
</svg>